<?xml version="1.0" encoding="UTF-8"?>
<svg id="Ebene_1" xmlns="http://www.w3.org/2000/svg" xmlns:xlink="http://www.w3.org/1999/xlink" version="1.1" viewBox="0 0 537 158">
  <!-- Generator: Adobe Illustrator 29.0.1, SVG Export Plug-In . SVG Version: 2.1.0 Build 192)  -->
  <defs>
    <style>
      .st0 {
        fill: url(#Unbenannter_Verlauf);
      }

      .st1 {
        fill: #272727;
      }
    </style>
    <linearGradient id="Unbenannter_Verlauf" data-name="Unbenannter Verlauf" x1="538.2" y1="111.6" x2="174.3" y2="111.6" gradientTransform="translate(0 190.4) scale(1 -1)" gradientUnits="userSpaceOnUse">
      <stop offset="0" stop-color="#ff0057"/>
      <stop offset=".9" stop-color="#ff9800"/>
    </linearGradient>
  </defs>
  <path class="st1" d="M124.2,75.2c-1.9,0-3.6,1.6-3.6,3.6,0,9.3-7.4,16.8-16.6,16.9-9.3,0-16.8-7.4-16.9-16.7,0-9.3,7.4-16.8,16.6-16.9,6.2,0,11.9,3.4,14.8,8.7,0,.1.1.2.1.3,1.9-1.6,4.5-2.4,7-2-.2-.6-.5-1.1-.8-1.7-6.3-11.6-20.7-15.9-32.3-9.7-11.6,6.3-15.9,20.7-9.7,32.3,6.3,11.6,20.7,15.9,32.3,9.7,2-1.1,3.8-2.4,5.4-4v7.1c0,9.2-7.4,16.6-16.6,16.6s-13.6-4.6-15.8-11.6l-6.8,2.2c4,12.5,17.4,19.4,30,15.4,9.9-3.1,16.6-12.3,16.6-22.7v-24c0-2-1.6-3.6-3.6-3.6"/>
  <path class="st1" d="M158.7,94.2c-1.3,1.2-3.1,1.9-4.9,1.9-3.2,0-4.7-2-4.7-5.5v-28.5h9.3v-6.6h-9.3v-9c0-2-1.6-3.6-3.6-3.6s-3.6,1.6-3.6,3.6v9h-7.6v6.6h7.6v29.5c0,6.9,3.4,10.8,10.3,10.8s6.8-1.2,8.6-2.9l-2.2-5.3Z"/>
  <polygon class="st1" points="68.2 55.6 52.8 93.5 37.5 55.6 29.7 55.6 49 101.9 56.8 101.9 76 55.6 68.2 55.6"/>
  <path class="st0" d="M195.2,94.6c-8.7,0-15.7-7-15.7-15.7s7-15.7,15.7-15.7,15.7,7,15.7,15.7-7,15.7-15.7,15.7M195.2,55.4c-6.1,0-11.6,2.4-15.7,6.1v-5.6h-8.2v67.8c0,2.1,1.7,3.7,3.7,3.7h.7c2.1,0,3.7-1.7,3.7-3.7v-27.5c4.2,3.8,9.6,6.2,15.7,6.2,13,0,23.5-10.5,23.5-23.5s-10.5-23.5-23.5-23.5M232.6,30.2h-.9c-2,0-3.6,1.6-3.6,3.6v67.9h8.2V33.9c0-2-1.6-3.6-3.6-3.6M411.7,94.7c-8.7,0-15.7-7-15.7-15.7s7-15.7,15.7-15.7,15.7,7,15.7,15.7-7,15.7-15.7,15.7M411.7,55.4c-13,0-23.5,10.5-23.5,23.5s10.5,23.5,23.5,23.5,23.5-10.5,23.5-23.5-10.5-23.5-23.5-23.5M517.6,55.6c-5.7,0-10.7,2.7-13.9,6.8-3.2-4.1-8.2-6.8-13.9-6.8-9.7,0-17.7,7.8-17.7,17.3v28.9h7.6v-28.9c0-5.3,4.5-9.6,10-9.6s10,4.3,10,9.6v28.9h7.8v-28.9c0-5.3,4.5-9.6,10-9.6s10,4.3,10,9.6v28.9h7.6v-28.9c0-9.5-7.9-17.3-17.7-17.3M462.8,56.4c-4.8.5-8.5,1.8-11.3,3.3v-3.8h-8v45.9h8v-32.7c1.3-1.5,4.8-4.5,12.1-5.2,1.9-.2,3.4-1.8,3.4-3.7s-1.9-4-4.2-3.7M318.9,96.3c-3.2,0-4.7-2.1-4.7-5.4v-28.5h9.3v-6.6h-9.3v-9c0-2-1.6-3.6-3.6-3.6s-3.6,1.6-3.6,3.6v9h-7.6v6.6h7.6v29.4c0,6.9,3.4,10.8,10.2,10.8s6.8-1.2,8.6-2.9l-2.2-5.3c-1.4,1.2-3.1,1.9-4.9,1.9M350.1,96.3c-3.2,0-4.7-2.1-4.7-5.4v-28.5h9.3v-6.6h-9.3v-9c0-2-1.6-3.6-3.6-3.6s-3.6,1.6-3.6,3.6v9h-7.6v6.6h7.6v29.4c0,6.9,3.4,10.8,10.2,10.8s6.8-1.2,8.6-2.9l-2.2-5.3c-1.4,1.2-3.1,1.9-4.9,1.9M381.2,36.5c1.8,0,3.5.7,4.9,1.9l2.2-5.3c-1.8-1.7-4.4-2.9-8.6-2.9-6.9,0-10.2,3.9-10.2,10.8v14.8h-7.6v6.6h7.6v39.4h7.1v-15.7s0,0,0,0v-23.5h9.3v-6.6h-9.3v-13.9c0-3.4,1.5-5.4,4.7-5.4M288.5,55.4h0c-2,0-3.6,1.6-3.6,3.6v3.7c-3.8-3.8-8.8-6.4-14.6-6.9-8.1-.7-16.2,3-20.9,9.7h0c-2.5,3.4-3.9,7.5-4.3,11.7-1.1,12.9,8.6,24.2,21.4,25.2,3.5.3,6.9-.2,10.1-1.4,1.9-.7,2.8-2.8,2.1-4.6s-2.8-2.8-4.6-2.1c-2.2.8-4.6,1.2-7,1-8.9-.7-15.6-8.6-14.9-17.5.2-2.9,1.3-5.7,3-8.1h0c3.4-4.7,8.8-7.2,14.5-6.7,8.9.7,15.6,8.6,14.9,17.5-.3,3.6-1.8,6.8-4.1,9.5,2.3,1,4.1,3,4.5,5.7h0v6.7h7.2v-43.3c0-2-1.6-3.6-3.6-3.6"/>
  <g>
    <path class="st1" d="M40.6,147.3c0,1.1-.2,2.1-.5,2.9s-.9,1.5-1.5,2.1-1.4.9-2.3,1.2c-.9.3-1.9.4-3,.4s-1.1,0-1.8,0-1.2-.1-1.7-.3v-12.7c.5-.1,1.1-.2,1.7-.3.6,0,1.2,0,1.8,0,1.1,0,2.1.1,3,.4.9.3,1.7.7,2.3,1.2s1.1,1.2,1.5,2.1c.4.8.5,1.8.5,2.9h0ZM33.4,152.4c1.7,0,3-.4,3.9-1.3.9-.9,1.3-2.1,1.3-3.7s-.4-2.8-1.3-3.7-2.2-1.3-3.9-1.3-.9,0-1.2,0c-.3,0-.5,0-.6,0v10c.1,0,.3,0,.6,0,.3,0,.7,0,1.2,0,0,0,0,0,0,0Z"/>
    <path class="st1" d="M44.2,142.3c-.3,0-.6-.1-.8-.3-.2-.2-.3-.5-.3-.8s.1-.6.3-.8.5-.3.8-.3.6.1.8.3c.2.2.3.5.3.8s-.1.6-.3.8-.5.3-.8.3ZM45.1,153.9h-1.8v-9.8h1.8v9.8Z"/>
    <path class="st1" d="M47.7,149c0-.9.1-1.6.4-2.3.3-.7.6-1.2,1-1.6.4-.4.9-.8,1.4-1s1.1-.3,1.7-.3c1.3,0,2.3.4,3,1.2.7.8,1,2.1,1,3.8v.3c0,.1,0,.2,0,.3h-6.7c0,1,.4,1.8.9,2.3.5.5,1.3.8,2.4.8s1.1,0,1.6-.2.7-.2,1-.3l.2,1.5c-.2.1-.6.2-1.1.3s-1.1.2-1.8.2-1.6-.1-2.2-.4-1.1-.6-1.5-1.1c-.4-.4-.7-1-.9-1.6s-.3-1.3-.3-2.1h0ZM54.4,148c0-.8-.2-1.4-.6-2s-1-.8-1.7-.8-.8,0-1.1.2c-.3.2-.6.4-.8.6-.2.3-.4.5-.5.9-.1.3-.2.7-.2,1h4.9Z"/>
    <path class="st1" d="M66.7,152.6c1.9,0,2.9-.7,2.9-2s0-.8-.3-1-.4-.5-.7-.7-.6-.4-1-.5c-.4-.2-.8-.3-1.2-.4-.5-.2-.9-.3-1.4-.6-.4-.2-.8-.4-1.1-.7s-.6-.6-.8-1-.3-.9-.3-1.4c0-1.1.4-2,1.2-2.7.8-.6,1.9-1,3.2-1s1.5,0,2.2.3c.7.2,1.1.3,1.4.6l-.6,1.5c-.3-.2-.7-.3-1.2-.5s-1.1-.2-1.8-.2-.7,0-1,.1-.6.2-.8.3c-.2.2-.4.3-.5.6s-.2.5-.2.8,0,.7.2.9.3.4.6.6c.3.2.5.3.9.5.3.2.7.3,1.1.4.6.2,1.1.4,1.6.7.5.2.9.5,1.2.8s.6.7.8,1.1.3,1,.3,1.6c0,1.2-.4,2-1.3,2.7s-2,.9-3.5.9-1,0-1.4-.1-.8-.2-1.2-.2c-.3,0-.6-.2-.9-.3s-.4-.2-.6-.3l.5-1.5c.3.2.7.3,1.3.6s1.3.3,2.2.3h0Z"/>
    <path class="st1" d="M77.2,143.8c.7,0,1.3,0,1.8.3s.9.4,1.2.8c.3.3.5.7.6,1.2.1.5.2,1,.2,1.5v6.1c-.2,0-.4,0-.6.1-.3,0-.6,0-.9.1s-.7,0-1.1.1c-.4,0-.8,0-1.2,0s-1.1,0-1.5-.2c-.5-.1-.9-.3-1.2-.5s-.6-.6-.8-1c-.2-.4-.3-.9-.3-1.5s.1-1,.3-1.4c.2-.4.5-.7.9-.9s.8-.4,1.3-.5,1-.2,1.6-.2.4,0,.5,0c.2,0,.4,0,.5,0,.2,0,.3,0,.4,0s.2,0,.3,0v-.5c0-.3,0-.6,0-.9,0-.3-.2-.5-.3-.8-.2-.2-.4-.4-.7-.5s-.7-.2-1.1-.2-1.1,0-1.5.1-.8.2-1,.3l-.2-1.5c.2,0,.6-.2,1.1-.3.5,0,1.1-.1,1.7-.1h0s0,0,0,0ZM77.4,152.6c.4,0,.8,0,1.1,0,.3,0,.6,0,.8-.1v-2.9c-.1,0-.3-.1-.6-.2s-.6,0-1,0-.5,0-.8,0-.6.1-.8.2c-.2.1-.5.3-.6.5-.2.2-.2.5-.2.8,0,.6.2,1.1.6,1.3s1,.4,1.6.4h0Z"/>
    <path class="st1" d="M87.2,143.8c.7,0,1.3,0,1.8.3s.9.4,1.2.8c.3.3.5.7.6,1.2.1.5.2,1,.2,1.5v6.1c-.2,0-.4,0-.6.1-.3,0-.6,0-.9.1s-.7,0-1.1.1c-.4,0-.8,0-1.2,0s-1.1,0-1.5-.2c-.5-.1-.9-.3-1.2-.5s-.6-.6-.8-1c-.2-.4-.3-.9-.3-1.5s.1-1,.3-1.4c.2-.4.5-.7.9-.9s.8-.4,1.3-.5,1-.2,1.6-.2.4,0,.5,0c.2,0,.4,0,.5,0,.2,0,.3,0,.4,0s.2,0,.3,0v-.5c0-.3,0-.6,0-.9,0-.3-.2-.5-.3-.8-.2-.2-.4-.4-.7-.5s-.7-.2-1.1-.2-1.1,0-1.5.1-.8.2-1,.3l-.2-1.5c.2,0,.6-.2,1.1-.3.5,0,1.1-.1,1.7-.1h0s0,0,0,0ZM87.3,152.6c.4,0,.8,0,1.1,0,.3,0,.6,0,.8-.1v-2.9c-.1,0-.3-.1-.6-.2s-.6,0-1,0-.5,0-.8,0-.6.1-.8.2c-.2.1-.5.3-.6.5-.2.2-.2.5-.2.8,0,.6.2,1.1.6,1.3s1,.4,1.6.4h0Z"/>
    <path class="st1" d="M97.2,152.6c1.9,0,2.9-.7,2.9-2s0-.8-.3-1c-.2-.3-.4-.5-.7-.7s-.6-.4-1-.5c-.4-.2-.8-.3-1.2-.4-.5-.2-.9-.3-1.4-.6-.4-.2-.8-.4-1.1-.7s-.6-.6-.8-1-.3-.9-.3-1.4c0-1.1.4-2,1.2-2.7.8-.6,1.9-1,3.2-1s1.5,0,2.2.3c.7.2,1.1.3,1.4.6l-.6,1.5c-.3-.2-.7-.3-1.2-.5s-1.1-.2-1.8-.2-.7,0-1,.1-.6.2-.8.3c-.2.2-.4.3-.5.6s-.2.5-.2.8,0,.7.2.9.3.4.6.6c.3.2.5.3.9.5.3.2.7.3,1.1.4.6.2,1.1.4,1.6.7s.9.5,1.2.8.6.7.8,1.1.3,1,.3,1.6c0,1.2-.4,2-1.3,2.7-.8.6-2,.9-3.5.9s-1,0-1.4-.1-.8-.2-1.2-.2c-.3,0-.6-.2-.9-.3s-.4-.2-.6-.3l.5-1.5c.3.2.7.3,1.3.6s1.3.3,2.2.3h0Z"/>
    <path class="st1" d="M112.6,139.2c.5,0,1,0,1.3.1s.6.2.8.2l-.3,1.5c-.2,0-.4-.2-.6-.2s-.6-.1-1-.1c-.8,0-1.4.2-1.7.7-.3.4-.5,1-.5,1.8v.8h3.8v1.5h-3.8v8.4h-1.8v-10.7c0-1.3.3-2.2.9-2.9.6-.7,1.6-1,2.9-1h0Z"/>
    <path class="st1" d="M124.2,153.6c-.4,0-.9.2-1.6.3-.7.1-1.4.2-2.3.2s-1.4-.1-1.9-.3-.9-.5-1.2-.9c-.3-.4-.5-.9-.7-1.4s-.2-1.2-.2-1.8v-5.5h1.8v5.1c0,1.2.2,2.1.6,2.6.4.5,1,.8,1.9.8s.4,0,.6,0,.4,0,.6,0c.2,0,.3,0,.5,0s.2,0,.3,0v-8.3h1.8v9.6h0,0ZM118.4,142.2c-.3,0-.5-.1-.8-.3-.2-.2-.3-.5-.3-.8s.1-.6.3-.8c.2-.2.5-.3.8-.3s.5.1.8.3.3.5.3.8-.1.6-.3.8-.5.3-.8.3ZM122,142.2c-.3,0-.5-.1-.8-.3-.2-.2-.3-.5-.3-.8s.1-.6.3-.8c.2-.2.5-.3.8-.3s.5.1.8.3c.2.2.3.5.3.8s-.1.6-.3.8c-.2.2-.5.3-.8.3Z"/>
    <path class="st1" d="M130.9,143.8c.2,0,.3,0,.5,0,.2,0,.4,0,.6,0,.2,0,.4,0,.5,0,.2,0,.3,0,.3,0l-.3,1.5c-.1,0-.4-.1-.7-.2-.3,0-.7-.1-1.2-.1s-.7,0-1,.1-.5.1-.6.1v8.3h-1.8v-9.4c.4-.2.9-.3,1.6-.4.6-.1,1.3-.2,2.1-.2h0s0,0,0,0Z"/>
    <path class="st1" d="M145.7,139.5l1.8-.3v14.4c-.4.1-.9.2-1.6.3s-1.4.2-2.2.2-1.4-.1-2-.3-1.1-.6-1.6-1c-.4-.4-.8-1-1-1.6s-.3-1.3-.3-2.2,0-1.4.3-2.1c.2-.6.5-1.2.9-1.6.4-.4.8-.8,1.4-1.1.6-.3,1.2-.4,1.9-.4s1.1,0,1.5.2.8.3,1,.4v-5h0ZM145.7,146.1c-.2-.2-.5-.3-.9-.5s-.8-.2-1.3-.2-.9,0-1.3.3c-.3.2-.7.4-.9.8-.2.3-.4.7-.5,1.1s-.2.9-.2,1.4c0,1.2.3,2,.8,2.7.6.6,1.3.9,2.3.9s.9,0,1.2,0c.3,0,.6,0,.8-.1v-6.2h0Z"/>
    <path class="st1" d="M151.4,142.3c-.3,0-.6-.1-.8-.3-.2-.2-.3-.5-.3-.8s.1-.6.3-.8.5-.3.8-.3.6.1.8.3c.2.2.3.5.3.8s-.1.6-.3.8-.5.3-.8.3ZM152.3,153.9h-1.8v-9.8h1.8v9.8Z"/>
    <path class="st1" d="M154.9,149c0-.9.1-1.6.4-2.3.3-.7.6-1.2,1-1.6.4-.4.9-.8,1.4-1s1.1-.3,1.7-.3c1.3,0,2.3.4,3,1.2.7.8,1.1,2.1,1.1,3.8v.3c0,.1,0,.2,0,.3h-6.7c0,1,.4,1.8.9,2.3s1.3.8,2.4.8,1.1,0,1.6-.2c.4-.1.7-.2.9-.3l.2,1.5c-.2.1-.6.2-1.1.3s-1.1.2-1.8.2-1.6-.1-2.2-.4-1.1-.6-1.5-1.1c-.4-.4-.7-1-.9-1.6s-.3-1.3-.3-2.1h0ZM161.6,148c0-.8-.2-1.4-.6-2s-1-.8-1.7-.8-.8,0-1.1.2c-.3.2-.6.4-.8.6-.2.3-.4.5-.5.9-.1.3-.2.7-.2,1h4.9Z"/>
    <path class="st1" d="M177.1,139.5l1.8-.3v14.4c-.4.1-.9.2-1.6.3s-1.4.2-2.2.2-1.4-.1-2-.3-1.1-.6-1.6-1c-.4-.4-.8-1-1-1.6s-.3-1.3-.3-2.2.1-1.4.3-2.1.5-1.2.9-1.6c.4-.4.8-.8,1.4-1.1s1.2-.4,1.9-.4,1.1,0,1.5.2.8.3,1,.4v-5h0ZM177.1,146.1c-.2-.2-.5-.3-.9-.5s-.9-.2-1.3-.2-.9,0-1.3.3c-.4.2-.6.4-.9.8-.2.3-.4.7-.5,1.1s-.1.9-.1,1.4c0,1.2.3,2,.9,2.7.6.6,1.3.9,2.3.9s.9,0,1.2,0c.3,0,.6,0,.8-.1v-6.2h0Z"/>
    <path class="st1" d="M182.8,142.3c-.3,0-.6-.1-.8-.3-.2-.2-.3-.5-.3-.8s.1-.6.3-.8.5-.3.8-.3.6.1.8.3c.2.2.3.5.3.8s-.1.6-.3.8-.5.3-.8.3ZM183.7,153.9h-1.8v-9.8h1.8v9.8Z"/>
    <path class="st1" d="M193,152.9c-.1,0-.4.2-.9.4-.4.2-.9.2-1.5.2s-1.1,0-1.7-.3-1-.5-1.4-.9c-.4-.4-.7-.9-.9-1.5s-.3-1.3-.3-2.1.1-1.4.3-2,.5-1.1.9-1.6.9-.8,1.5-1,1.3-.4,2-.4,1.5,0,2.1.2,1.1.2,1.5.3v8.8c0,1.5-.4,2.6-1.2,3.3s-2,1-3.6,1-1.2,0-1.8-.2-1-.2-1.4-.3l.3-1.5c.4.1.8.3,1.3.4.5.1,1,.2,1.6.2,1,0,1.8-.2,2.2-.6.5-.4.7-1.1.7-2v-.4h0ZM193,145.6c-.2,0-.4,0-.7-.1s-.7,0-1.2,0c-.9,0-1.7.3-2.2.9-.5.6-.8,1.4-.8,2.5s0,1.1.2,1.5.3.7.6,1,.5.5.9.6c.3.1.6.2,1,.2s.9,0,1.3-.2.7-.3.9-.5v-5.8h0Z"/>
    <path class="st1" d="M198.7,142.3c-.3,0-.6-.1-.8-.3-.2-.2-.3-.5-.3-.8s.1-.6.3-.8.5-.3.8-.3.6.1.8.3c.2.2.3.5.3.8s-.1.6-.3.8-.5.3-.8.3ZM199.6,153.9h-1.8v-9.8h1.8v9.8Z"/>
    <path class="st1" d="M204.4,144h3.7v1.5h-3.7v4.5c0,.5,0,.9.1,1.2s.2.6.3.8.3.3.6.4c.2,0,.5.1.8.1.5,0,.9,0,1.3-.2s.5-.2.7-.3l.3,1.5c-.2,0-.5.2-.9.3-.4.1-.9.2-1.5.2s-1.2,0-1.6-.3-.8-.4-1.1-.8-.4-.8-.6-1.3-.2-1.1-.2-1.7v-8.8l1.8-.3v3h0,0Z"/>
    <path class="st1" d="M213.8,143.8c.7,0,1.3,0,1.8.3s.9.4,1.2.8c.3.3.5.7.6,1.2.1.5.2,1,.2,1.5v6.1c-.1,0-.4,0-.6.1-.3,0-.6,0-.9.1s-.7,0-1.1.1c-.4,0-.8,0-1.2,0s-1.1,0-1.5-.2c-.5-.1-.9-.3-1.2-.5s-.6-.6-.8-1c-.2-.4-.3-.9-.3-1.5s.1-1,.3-1.4c.2-.4.5-.7.9-.9s.8-.4,1.3-.5,1-.2,1.6-.2.4,0,.6,0c.2,0,.4,0,.5,0,.2,0,.3,0,.4,0s.2,0,.3,0v-.5c0-.3,0-.6-.1-.9,0-.3-.2-.5-.3-.8-.2-.2-.4-.4-.7-.5s-.6-.2-1.1-.2-1.1,0-1.5.1-.8.2-1,.3l-.2-1.5c.2,0,.6-.2,1.1-.3.5,0,1.1-.1,1.7-.1h0s0,0,0,0ZM214,152.6c.4,0,.8,0,1.1,0,.3,0,.6,0,.8-.1v-2.9c-.1,0-.3-.1-.6-.2s-.6,0-1,0-.5,0-.8,0-.6.1-.8.2c-.2.1-.4.3-.6.5-.2.2-.2.5-.2.8,0,.6.2,1.1.6,1.3s.9.4,1.6.4h0Z"/>
    <path class="st1" d="M223.6,154.1c-1.1,0-1.9-.3-2.3-.7-.4-.4-.7-1.1-.7-2.1v-11.8l1.8-.3v11.8c0,.3,0,.5,0,.7s.1.3.2.4c.1.1.3.2.4.3s.4.1.7.1l-.2,1.5h0Z"/>
    <path class="st1" d="M225.2,149c0-.9.1-1.6.4-2.3.3-.7.6-1.2,1-1.6.4-.4.9-.8,1.4-1s1.1-.3,1.7-.3c1.3,0,2.3.4,3,1.2.7.8,1.1,2.1,1.1,3.8v.3c0,.1,0,.2,0,.3h-6.7c0,1,.4,1.8.9,2.3s1.3.8,2.4.8,1.1,0,1.6-.2c.4-.1.7-.2.9-.3l.2,1.5c-.2.1-.6.2-1.1.3s-1.1.2-1.8.2-1.6-.1-2.2-.4-1.1-.6-1.5-1.1c-.4-.4-.7-1-.9-1.6s-.3-1.3-.3-2.1h0ZM232,148c0-.8-.2-1.4-.6-2s-1-.8-1.7-.8-.8,0-1.1.2c-.3.2-.6.4-.8.6-.2.3-.4.5-.5.9-.1.3-.2.7-.2,1h4.9Z"/>
    <path class="st1" d="M251.7,140.8v1.6h-4.1v11.5h-1.8v-11.5h-4.1v-1.6h10.1,0Z"/>
    <path class="st1" d="M256,143.8c.1,0,.3,0,.5,0,.2,0,.4,0,.6,0,.2,0,.4,0,.5,0,.2,0,.3,0,.3,0l-.3,1.5c-.1,0-.4-.1-.7-.2s-.7-.1-1.2-.1-.6,0-1,.1-.5.1-.6.1v8.3h-1.8v-9.4c.4-.2.9-.3,1.6-.4.6-.1,1.3-.2,2.1-.2h0s0,0,0,0Z"/>
    <path class="st1" d="M262.9,143.8c.7,0,1.3,0,1.8.3s.9.4,1.2.8c.3.3.5.7.6,1.2.1.5.2,1,.2,1.5v6.1c-.1,0-.4,0-.6.1-.3,0-.6,0-.9.1s-.7,0-1.1.1c-.4,0-.8,0-1.2,0s-1.1,0-1.5-.2c-.5-.1-.9-.3-1.2-.5s-.6-.6-.8-1c-.2-.4-.3-.9-.3-1.5s.1-1,.3-1.4c.2-.4.5-.7.9-.9s.8-.4,1.3-.5,1-.2,1.6-.2.4,0,.6,0c.2,0,.4,0,.5,0,.2,0,.3,0,.4,0s.2,0,.3,0v-.5c0-.3,0-.6-.1-.9,0-.3-.2-.5-.3-.8-.2-.2-.4-.4-.7-.5s-.6-.2-1.1-.2-1.1,0-1.5.1-.8.2-1,.3l-.2-1.5c.2,0,.6-.2,1.1-.3.5,0,1.1-.1,1.7-.1h0s0,0,0,0ZM263,152.6c.4,0,.8,0,1.1,0,.3,0,.6,0,.8-.1v-2.9c-.1,0-.3-.1-.6-.2s-.6,0-1,0-.5,0-.8,0-.6.1-.8.2c-.2.1-.4.3-.6.5-.2.2-.2.5-.2.8,0,.6.2,1.1.6,1.3s.9.4,1.6.4h0Z"/>
    <path class="st1" d="M269.7,144.3c.4,0,.9-.2,1.6-.3.7-.1,1.4-.2,2.3-.2s1.4.1,1.9.3c.5.2.9.5,1.2.9.3.4.5.9.6,1.4s.2,1.2.2,1.8v5.5h-1.8v-5.1c0-.6,0-1.1-.1-1.6s-.2-.8-.4-1-.4-.4-.8-.6-.7-.2-1.2-.2-.4,0-.6,0c-.2,0-.4,0-.6,0-.2,0-.3,0-.5,0s-.2,0-.3,0v8.3h-1.8v-9.6h0s0,0,0,0Z"/>
    <path class="st1" d="M282.9,152.6c.7,0,1.2,0,1.6-.3s.5-.5.5-.9-.2-.8-.5-1-.9-.5-1.7-.8c-.4-.2-.7-.3-1.1-.5s-.6-.3-.9-.6c-.3-.2-.4-.5-.6-.8s-.2-.7-.2-1.1c0-.9.3-1.6,1-2.1s1.5-.8,2.6-.8.6,0,.8,0c.3,0,.5,0,.8.1.2,0,.4,0,.6.1.2,0,.3,0,.4.1l-.3,1.5c-.2,0-.5-.2-.9-.3-.4-.1-.9-.2-1.5-.2s-.9,0-1.3.3c-.4.2-.6.5-.6.9s0,.4.1.6.2.3.4.4.4.3.6.4c.3.1.6.2.9.3.5.2.9.3,1.2.5.4.2.7.4.9.6.3.2.5.5.6.8s.2.7.2,1.2c0,.9-.3,1.6-1,2.1s-1.6.7-2.9.7-1.6,0-2-.2-.8-.3-1-.3l.3-1.5c.2,0,.5.2,1,.3.4.2,1,.2,1.8.2h0,0Z"/>
    <path class="st1" d="M293,139.2c.5,0,1,0,1.3.1s.6.2.8.2l-.3,1.5c-.1,0-.4-.2-.6-.2s-.6-.1-1-.1c-.8,0-1.4.2-1.7.7s-.5,1-.5,1.8v.8h3.8v1.5h-3.8v8.4h-1.8v-10.7c0-1.3.3-2.2.9-2.9.6-.7,1.6-1,2.9-1h0Z"/>
    <path class="st1" d="M305.2,149c0,.8-.1,1.5-.3,2.1s-.5,1.2-1,1.6-.9.8-1.5,1.1-1.2.4-1.9.4-1.3-.1-1.9-.4c-.6-.2-1-.6-1.5-1.1-.4-.4-.7-1-1-1.6s-.3-1.3-.3-2.1.1-1.5.3-2.1.5-1.2,1-1.6.9-.8,1.5-1.1,1.2-.4,1.9-.4,1.3.1,1.9.4c.6.2,1,.6,1.5,1.1.4.4.7,1,1,1.6s.3,1.3.3,2.1ZM303.4,149c0-1.1-.2-2-.8-2.6s-1.2-1-2-1-1.5.3-2,1c-.5.7-.8,1.5-.8,2.6s.2,2,.8,2.6,1.2,1,2,1,1.5-.3,2-1c.5-.7.8-1.5.8-2.6Z"/>
    <path class="st1" d="M311.5,143.8c.1,0,.3,0,.5,0,.2,0,.4,0,.6,0,.2,0,.4,0,.5,0s.3,0,.4,0l-.3,1.5c-.1,0-.4-.1-.7-.2-.3,0-.7-.1-1.2-.1s-.6,0-1,.1-.5.1-.6.1v8.3h-1.8v-9.4c.4-.2.9-.3,1.5-.4.6-.1,1.3-.2,2.1-.2h0s0,0,0,0Z"/>
    <path class="st1" d="M315.4,144.3c.4,0,.9-.2,1.6-.3.7-.1,1.4-.2,2.3-.2s1.2,0,1.6.3c.4.2.8.4,1.1.8,0,0,.2-.2.4-.3s.4-.2.7-.3c.3-.1.6-.2.9-.3.3,0,.7-.1,1.1-.1.8,0,1.4.1,1.9.3.5.2.9.5,1.1.9.3.4.5.9.5,1.4s.1,1.2.1,1.8v5.5h-1.8v-5.1c0-.6,0-1.1,0-1.5,0-.4-.2-.8-.3-1-.2-.3-.4-.5-.6-.6-.3-.1-.6-.2-1-.2s-1.1,0-1.5.2c-.4.2-.6.3-.8.4.1.3.2.7.2,1.1,0,.4,0,.8,0,1.2v5.5h-1.8v-5.1c0-.6,0-1.1-.1-1.5,0-.4-.2-.8-.3-1s-.4-.5-.6-.6c-.3-.1-.6-.2-1-.2s-.4,0-.6,0c-.2,0-.4,0-.6,0-.2,0-.3,0-.5,0-.1,0-.3,0-.3,0v8.3h-1.8v-9.6h0Z"/>
    <path class="st1" d="M334.9,143.8c.7,0,1.3,0,1.8.3s.9.4,1.2.8c.3.3.5.7.6,1.2s.2,1,.2,1.5v6.1c-.1,0-.4,0-.6.1-.3,0-.6,0-.9.1-.3,0-.7,0-1.1.1-.4,0-.8,0-1.2,0s-1.1,0-1.5-.2c-.5-.1-.9-.3-1.2-.5s-.6-.6-.8-1-.3-.9-.3-1.5.1-1,.3-1.4c.2-.4.5-.7.9-.9s.8-.4,1.3-.5,1-.2,1.6-.2.4,0,.5,0c.2,0,.4,0,.5,0,.2,0,.3,0,.4,0s.2,0,.3,0v-.5c0-.3,0-.6-.1-.9,0-.3-.2-.5-.3-.8-.2-.2-.4-.4-.7-.5-.3-.1-.6-.2-1.1-.2s-1.1,0-1.5.1-.8.2-1,.3l-.2-1.5c.2,0,.6-.2,1.1-.3.5,0,1.1-.1,1.7-.1h0s0,0,0,0ZM335.1,152.6c.4,0,.8,0,1.1,0,.3,0,.6,0,.8-.1v-2.9c-.1,0-.3-.1-.6-.2-.3,0-.6,0-1,0s-.5,0-.8,0-.6.1-.8.2c-.2.1-.5.3-.6.5-.2.2-.2.5-.2.8,0,.6.2,1.1.6,1.3s1,.4,1.6.4h0Z"/>
    <path class="st1" d="M343.4,144h3.7v1.5h-3.7v4.5c0,.5,0,.9.1,1.2s.2.6.3.8.3.3.6.4c.2,0,.5.1.8.1.5,0,1,0,1.3-.2s.5-.2.7-.3l.3,1.5c-.2,0-.5.2-.9.3-.4.1-.9.2-1.5.2s-1.2,0-1.6-.3-.8-.4-1-.8c-.3-.3-.5-.8-.6-1.3s-.2-1.1-.2-1.7v-8.8l1.8-.3v3h0,0Z"/>
    <path class="st1" d="M350.4,142.3c-.3,0-.6-.1-.8-.3-.2-.2-.3-.5-.3-.8s.1-.6.3-.8.5-.3.8-.3.6.1.8.3c.2.2.3.5.3.8s-.1.6-.3.8-.5.3-.8.3ZM351.3,153.9h-1.8v-9.8h1.8v9.8Z"/>
    <path class="st1" d="M363.1,149c0,.8-.1,1.5-.3,2.1s-.5,1.2-1,1.6-.9.8-1.5,1.1-1.2.4-1.9.4-1.3-.1-1.9-.4c-.6-.2-1-.6-1.5-1.1-.4-.4-.7-1-1-1.6s-.3-1.3-.3-2.1.1-1.5.3-2.1.5-1.2,1-1.6.9-.8,1.5-1.1,1.2-.4,1.9-.4,1.3.1,1.9.4c.6.2,1,.6,1.5,1.1.4.4.7,1,1,1.6s.3,1.3.3,2.1ZM361.2,149c0-1.1-.2-2-.8-2.6s-1.2-1-2-1-1.5.3-2,1c-.5.7-.8,1.5-.8,2.6s.2,2,.8,2.6,1.2,1,2,1,1.5-.3,2-1c.5-.7.8-1.5.8-2.6Z"/>
    <path class="st1" d="M365.7,144.3c.4,0,.9-.2,1.6-.3s1.4-.2,2.3-.2,1.4.1,2,.3c.5.2.9.5,1.2.9.3.4.5.9.6,1.4s.2,1.2.2,1.8v5.5h-1.8v-5.1c0-.6,0-1.1-.1-1.6s-.2-.8-.4-1-.4-.4-.8-.6-.7-.2-1.2-.2-.4,0-.6,0c-.2,0-.4,0-.6,0-.2,0-.3,0-.5,0s-.2,0-.3,0v8.3h-1.8v-9.6Z"/>
    <path class="st1" d="M382.1,142.3c-.3,0-.6-.1-.8-.3-.2-.2-.3-.5-.3-.8s.1-.6.3-.8.5-.3.8-.3.6.1.8.3c.2.2.3.5.3.8s-.1.6-.3.8-.5.3-.8.3ZM383,153.9h-1.8v-9.8h1.8v9.8Z"/>
    <path class="st1" d="M386.1,144.3c.4,0,.9-.2,1.6-.3.7-.1,1.4-.2,2.3-.2s1.2,0,1.6.3c.4.2.8.4,1.1.8,0,0,.2-.2.4-.3s.4-.2.7-.3c.3-.1.6-.2.9-.3.3,0,.7-.1,1.1-.1.8,0,1.4.1,1.9.3.5.2.9.5,1.1.9.3.4.5.9.5,1.4s.1,1.2.1,1.8v5.5h-1.8v-5.1c0-.6,0-1.1,0-1.5,0-.4-.2-.8-.3-1-.2-.3-.4-.5-.6-.6-.3-.1-.6-.2-1-.2s-1.1,0-1.5.2c-.4.2-.6.3-.8.4.1.3.2.7.2,1.1,0,.4,0,.8,0,1.2v5.5h-1.8v-5.1c0-.6,0-1.1-.1-1.5,0-.4-.2-.8-.3-1s-.4-.5-.6-.6c-.3-.1-.6-.2-1-.2s-.4,0-.6,0c-.2,0-.4,0-.6,0-.2,0-.3,0-.5,0-.1,0-.3,0-.3,0v8.3h-1.8v-9.6h0Z"/>
    <path class="st1" d="M407.3,153.9v-13.1h8v1.6h-6.2v3.9h5.5v1.5h-5.5v4.5h6.6v1.6h-8.5Z"/>
    <path class="st1" d="M418,144.3c.4,0,.9-.2,1.6-.3s1.4-.2,2.3-.2,1.4.1,2,.3c.5.2.9.5,1.2.9.3.4.5.9.6,1.4s.2,1.2.2,1.8v5.5h-1.8v-5.1c0-.6,0-1.1-.1-1.6s-.2-.8-.4-1-.4-.4-.8-.6-.7-.2-1.2-.2-.4,0-.6,0c-.2,0-.4,0-.6,0-.2,0-.3,0-.5,0s-.2,0-.3,0v8.3h-1.8v-9.6Z"/>
    <path class="st1" d="M428.4,149c0-.9.1-1.6.4-2.3.3-.7.6-1.2,1-1.6.4-.4.9-.8,1.4-1s1.1-.3,1.7-.3c1.3,0,2.3.4,3,1.2.7.8,1.1,2.1,1.1,3.8v.3c0,.1,0,.2,0,.3h-6.7c0,1,.4,1.8.9,2.3s1.3.8,2.4.8,1.1,0,1.6-.2c.4-.1.7-.2,1-.3l.2,1.5c-.2.1-.6.2-1.1.3s-1.1.2-1.8.2-1.6-.1-2.2-.4-1.1-.6-1.5-1.1-.7-1-.9-1.6-.3-1.3-.3-2.1h0ZM435.2,148c0-.8-.2-1.4-.6-2-.4-.5-1-.8-1.7-.8s-.8,0-1.1.2c-.3.2-.6.4-.8.6-.2.3-.4.5-.5.9-.1.3-.2.7-.2,1h4.9Z"/>
    <path class="st1" d="M443.3,143.8c.1,0,.3,0,.5,0,.2,0,.4,0,.6,0,.2,0,.4,0,.5,0s.3,0,.4,0l-.3,1.5c-.1,0-.4-.1-.7-.2-.3,0-.7-.1-1.2-.1s-.6,0-1,.1-.5.1-.6.1v8.3h-1.8v-9.4c.4-.2.9-.3,1.5-.4.6-.1,1.3-.2,2.1-.2h0s0,0,0,0Z"/>
    <path class="st1" d="M453.1,152.9c-.1,0-.4.2-.9.4s-.9.2-1.5.2-1.1,0-1.7-.3-1-.5-1.4-.9c-.4-.4-.7-.9-.9-1.5s-.3-1.3-.3-2.1.1-1.4.3-2,.5-1.1.9-1.6.9-.8,1.5-1c.6-.2,1.3-.4,2-.4s1.5,0,2.1.2,1.1.2,1.5.3v8.8c0,1.5-.4,2.6-1.2,3.3s-2,1-3.5,1-1.2,0-1.8-.2-1-.2-1.4-.3l.3-1.5c.4.1.8.3,1.3.4.5.1,1,.2,1.6.2,1,0,1.8-.2,2.3-.6s.7-1.1.7-2v-.4h0ZM453.1,145.6c-.2,0-.4,0-.7-.1s-.7,0-1.2,0c-.9,0-1.7.3-2.2.9s-.8,1.4-.8,2.5,0,1.1.2,1.5.3.7.6,1,.5.5.9.6c.3.1.6.2,1,.2s.9,0,1.3-.2.7-.3.9-.5v-5.8Z"/>
    <path class="st1" d="M458.9,142.3c-.3,0-.6-.1-.8-.3-.2-.2-.3-.5-.3-.8s.1-.6.3-.8.5-.3.8-.3.6.1.8.3c.2.2.3.5.3.8s-.1.6-.3.8-.5.3-.8.3ZM459.7,153.9h-1.8v-9.8h1.8v9.8Z"/>
    <path class="st1" d="M462.3,149c0-.9.1-1.6.4-2.3.3-.7.6-1.2,1-1.6.4-.4.9-.8,1.4-1s1.1-.3,1.7-.3c1.3,0,2.3.4,3,1.2.7.8,1.1,2.1,1.1,3.8v.3c0,.1,0,.2,0,.3h-6.7c0,1,.4,1.8.9,2.3s1.3.8,2.4.8,1.1,0,1.6-.2c.4-.1.7-.2,1-.3l.2,1.5c-.2.1-.6.2-1.1.3s-1.1.2-1.8.2-1.6-.1-2.2-.4-1.1-.6-1.5-1.1-.7-1-.9-1.6-.3-1.3-.3-2.1h0ZM469.1,148c0-.8-.2-1.4-.6-2-.4-.5-1-.8-1.7-.8s-.8,0-1.1.2c-.3.2-.6.4-.8.6-.2.3-.4.5-.5.9-.1.3-.2.7-.2,1h4.9Z"/>
    <path class="st1" d="M475.3,144.5c.2-.1.5-.3,1-.4s.9-.2,1.5-.2,1.3.1,1.9.4c.5.3,1,.6,1.4,1.1.4.4.7,1,.9,1.6.2.6.3,1.3.3,2.1s-.1,1.5-.3,2.2c-.2.6-.6,1.2-1,1.6s-.9.8-1.5,1-1.3.3-2,.3-1.5,0-2.2-.2c-.6-.1-1.1-.2-1.5-.3v-14.1l1.8-.3v5.3h0ZM475.3,152.3c.2,0,.4,0,.8.1s.7,0,1.2,0c.9,0,1.7-.3,2.3-.9.6-.6.9-1.5.9-2.7s0-1-.1-1.4c-.1-.4-.3-.8-.5-1.1-.2-.3-.5-.6-.9-.8-.4-.2-.8-.3-1.3-.3s-.9,0-1.3.2-.7.3-.9.5v6.2h0Z"/>
    <path class="st1" d="M484.3,149c0-.9.1-1.6.4-2.3.3-.7.6-1.2,1-1.6.4-.4.9-.8,1.4-1s1.1-.3,1.7-.3c1.3,0,2.3.4,3,1.2.7.8,1.1,2.1,1.1,3.8v.3c0,.1,0,.2,0,.3h-6.7c0,1,.4,1.8.9,2.3s1.3.8,2.4.8,1.1,0,1.6-.2c.4-.1.7-.2,1-.3l.2,1.5c-.2.1-.6.2-1.1.3s-1.1.2-1.8.2-1.6-.1-2.2-.4-1.1-.6-1.5-1.1-.7-1-.9-1.6-.3-1.3-.3-2.1h0ZM491,148c0-.8-.2-1.4-.6-2-.4-.5-1-.8-1.7-.8s-.8,0-1.1.2c-.3.2-.6.4-.8.6-.2.3-.4.5-.5.9-.1.3-.2.7-.2,1h4.9Z"/>
    <path class="st1" d="M499.1,143.8c.1,0,.3,0,.5,0,.2,0,.4,0,.6,0,.2,0,.4,0,.5,0s.3,0,.4,0l-.3,1.5c-.1,0-.4-.1-.7-.2-.3,0-.7-.1-1.2-.1s-.6,0-1,.1-.5.1-.6.1v8.3h-1.8v-9.4c.4-.2.9-.3,1.5-.4.6-.1,1.3-.2,2.1-.2h0s0,0,0,0Z"/>
    <path class="st1" d="M502.2,149c0-.9.1-1.6.4-2.3.3-.7.6-1.2,1-1.6.4-.4.9-.8,1.4-1s1.1-.3,1.7-.3c1.3,0,2.3.4,3,1.2.7.8,1.1,2.1,1.1,3.8v.3c0,.1,0,.2,0,.3h-6.7c0,1,.4,1.8.9,2.3s1.3.8,2.4.8,1.1,0,1.6-.2c.4-.1.7-.2,1-.3l.2,1.5c-.2.1-.6.2-1.1.3s-1.1.2-1.8.2-1.6-.1-2.2-.4-1.1-.6-1.5-1.1-.7-1-.9-1.6-.3-1.3-.3-2.1h0ZM509,148c0-.8-.2-1.4-.6-2-.4-.5-1-.8-1.7-.8s-.8,0-1.1.2c-.3.2-.6.4-.8.6-.2.3-.4.5-.5.9-.1.3-.2.7-.2,1h4.9Z"/>
    <path class="st1" d="M514.3,142.3c-.3,0-.6-.1-.8-.3-.2-.2-.3-.5-.3-.8s.1-.6.3-.8.5-.3.8-.3.6.1.8.3c.2.2.3.5.3.8s-.1.6-.3.8-.5.3-.8.3ZM515.1,153.9h-1.8v-9.8h1.8v9.8Z"/>
    <path class="st1" d="M522.5,154.1c-.8,0-1.5-.1-2.1-.4-.6-.3-1.1-.6-1.5-1.1s-.7-1-.9-1.6-.3-1.3-.3-2.1.1-1.4.3-2.1c.2-.6.5-1.2.9-1.6s.9-.8,1.5-1.1c.6-.3,1.2-.4,2-.4s.9,0,1.3.1c.4,0,.9.2,1.3.3l-.4,1.5c-.3-.1-.6-.2-.9-.3-.3,0-.7-.1-1.1-.1-1,0-1.7.3-2.2.9s-.8,1.5-.8,2.7,0,1,.2,1.5c.1.4.3.8.6,1.1s.6.6,1,.7.9.3,1.5.3.9,0,1.3-.1.7-.2.9-.3l.2,1.5c-.1,0-.2.1-.4.2s-.4.1-.6.2-.5,0-.8.1c-.3,0-.5,0-.8,0h0s0,0,0,0Z"/>
    <path class="st1" d="M527.2,153.9v-14.4l1.8-.3v5c.3-.1.7-.2,1-.3s.7-.1,1.1-.1c.8,0,1.4.1,2,.3.5.2.9.5,1.2.9.3.4.5.9.6,1.4s.2,1.2.2,1.8v5.5h-1.8v-5.1c0-.6,0-1.1-.1-1.6s-.2-.8-.4-1-.4-.4-.8-.6-.7-.2-1.2-.2-.4,0-.6,0c-.2,0-.4,0-.6,0-.2,0-.3,0-.5.1s-.2,0-.3,0v8.2h-1.8s0,0,0,0Z"/>
  </g>
</svg>